<?xml version="1.0" standalone="no"?>
<!DOCTYPE svg PUBLIC "-//W3C//DTD SVG 20010904//EN"
 "http://www.w3.org/TR/2001/REC-SVG-20010904/DTD/svg10.dtd">
<svg version="1.0" xmlns="http://www.w3.org/2000/svg"
 width="200.000000pt" height="200.000000pt" viewBox="0 0 200.000000 200.000000"
 preserveAspectRatio="xMidYMid meet">
<metadata>
Created by potrace 1.11, written by Peter Selinger 2001-2013
</metadata>
<g transform="translate(0.000000,200.000000) scale(0.100000,-0.100000)"
fill="#000000" stroke="none">
<path d="M291 1069 c-24 -39 -39 -74 -35 -79 20 -18 109 -68 115 -64 10 6 92
144 88 148 -2 1 -20 12 -40 24 -34 21 -37 21 -51 4 -18 -21 -48 -69 -48 -77 0
-14 18 -2 30 20 7 14 17 25 22 25 4 0 -2 -15 -14 -34 -12 -19 -28 -32 -35 -29
-19 7 -16 21 16 73 16 27 27 51 24 54 -15 15 -31 1 -72 -65z"/>
<path d="M690 1105 c0 -8 9 -15 20 -15 11 0 20 7 20 15 0 8 -9 15 -20 15 -11
0 -20 -7 -20 -15z"/>
<path d="M1379 1108 c-3 -51 0 -141 6 -157 8 -26 55 -35 55 -11 0 10 -7 20
-15 24 -11 4 -15 23 -15 81 0 60 -3 75 -15 75 -8 0 -15 -6 -16 -12z"/>
<path d="M1460 1105 c0 -10 7 -15 18 -13 21 4 19 22 -2 26 -10 2 -16 -3 -16
-13z"/>
<path d="M495 1100 c-10 -16 5 -31 28 -29 42 3 44 0 42 -58 -4 -117 28 -131
35 -16 l5 78 33 -3 c27 -3 32 0 32 17 0 20 -6 21 -84 21 -47 0 -88 -4 -91 -10z"/>
<path d="M1192 1100 c-38 -16 -54 -84 -31 -133 12 -27 47 -47 82 -47 13 0 28
-5 33 -10 14 -14 54 -21 54 -10 0 5 -5 12 -10 15 -6 4 -3 16 10 32 30 38 27
107 -5 138 -26 27 -87 33 -133 15z m111 -39 c14 -14 16 -69 3 -87 -9 -11 -27
-17 -55 -17 -57 0 -65 10 -62 76 1 19 8 30 24 37 23 9 77 4 90 -9z"/>
<path d="M769 1059 c-6 -3 -10 -28 -11 -55 -1 -73 1 -81 17 -81 11 0 15 13 15
54 0 53 1 54 28 51 24 -3 27 -7 28 -43 2 -60 3 -62 19 -62 11 0 15 13 15 54 0
46 3 53 20 53 18 0 20 -7 20 -55 0 -39 4 -54 13 -52 19 3 25 17 22 56 -3 54
-14 81 -33 82 -120 3 -145 3 -153 -2z"/>
<path d="M1025 1062 c-29 -5 -45 -31 -45 -73 0 -45 18 -62 68 -63 43 -1 53 25
12 31 -43 6 -49 11 -46 40 3 25 7 28 45 31 24 2 41 -1 41 -7 0 -6 -3 -11 -7
-12 -69 -7 -91 -33 -32 -37 46 -4 69 11 69 43 0 39 -44 58 -105 47z"/>
<path d="M1563 1062 c-27 -4 -36 -29 -38 -102 -2 -64 2 -80 21 -80 11 0 14 18
14 75 l0 75 39 0 c35 0 39 -3 43 -30 6 -37 3 -40 -39 -40 -26 0 -33 -4 -33
-19 0 -16 6 -19 41 -16 22 2 47 9 55 16 15 12 17 71 3 100 -9 17 -62 27 -106
21z"/>
<path d="M690 992 c0 -59 2 -68 18 -69 16 -1 19 7 19 68 1 61 -2 69 -18 69
-17 0 -19 -8 -19 -68z"/>
<path d="M1460 996 c0 -59 11 -88 28 -71 4 3 7 35 8 71 1 56 -2 64 -18 64 -16
0 -18 -9 -18 -64z"/>
</g>
</svg>
